<svg version="1.1" id="Layer_1" xmlns="http://www.w3.org/2000/svg" xmlns:xlink="http://www.w3.org/1999/xlink" x="0px" y="0px"
	 width="100%" viewBox="0 0 200 200" enable-background="new 0 0 200 200" xml:space="preserve">
<path fill="#E10F13" opacity="1.000000" stroke="none" 
	d="
M109.000000,201.000000 
	C72.689072,201.000000 36.878147,201.000000 1.033611,201.000000 
	C1.033611,134.397446 1.033611,67.794861 1.033611,1.096142 
	C67.560760,1.096142 134.121704,1.096142 200.841324,1.096142 
	C200.841324,67.666367 200.841324,134.333145 200.841324,201.000000 
	C170.461807,201.000000 139.980911,201.000000 109.000000,201.000000 
M67.706131,98.736183 
	C66.810638,98.947212 65.915138,99.158241 64.253700,99.332832 
	C57.522614,101.207848 50.814964,103.173996 44.049084,104.913696 
	C41.284893,105.624451 40.382786,107.084961 40.402164,109.876732 
	C40.513226,125.875519 40.445240,141.875534 40.548668,157.874420 
	C40.555035,158.859467 41.506847,159.838394 42.942795,160.971893 
	C52.291492,160.920761 61.640194,160.869614 71.839600,160.978043 
	C73.567215,160.935059 75.294830,160.892090 77.824516,161.008743 
	C80.824898,161.418335 80.429771,159.300140 80.431618,157.493423 
	C80.438263,150.997009 80.437798,144.500580 80.438904,138.004166 
	C80.439804,132.748428 80.439087,127.492676 80.439087,122.127121 
	C94.514488,122.127121 107.743927,122.127121 121.286392,122.127121 
	C121.377632,124.075706 121.514915,125.706497 121.520409,127.337730 
	C121.554054,137.332108 121.598877,147.326797 121.542595,157.320831 
	C121.528603,159.804901 121.684868,161.773300 125.922279,160.974396 
	C137.275360,160.922989 148.628433,160.871582 160.774399,160.815506 
	C161.025223,159.741547 161.492523,158.668030 161.494781,157.593552 
	C161.537338,137.283218 161.532806,116.972771 161.505280,96.662384 
	C161.503540,95.389481 161.232422,94.116936 161.108322,93.033638 
	C143.834763,93.033638 126.923317,93.033638 109.179276,92.896683 
	C107.784035,93.020805 106.388794,93.144920 104.139626,93.138245 
	C99.088081,93.812683 94.036537,94.487122 88.312622,95.068138 
	C87.871544,95.150719 87.430473,95.233299 86.214256,95.200592 
	C83.472832,95.792740 80.731415,96.384880 77.241013,96.887566 
	C76.502502,97.018898 75.763992,97.150230 74.274345,97.168808 
	C72.315575,97.709435 70.356812,98.250061 67.706131,98.736183 
M65.231300,79.972572 
	C68.328262,79.975449 71.426140,79.931053 74.521980,79.991272 
	C80.570740,80.108925 82.291786,78.636017 82.870926,72.525642 
	C83.027222,70.876564 82.954536,69.197281 82.881683,67.536476 
	C82.598206,61.074001 81.718422,54.579895 82.106453,48.160782 
	C82.563217,40.604599 79.170914,38.942242 72.540009,39.091816 
	C63.079899,39.305206 53.622784,39.679897 44.167316,40.058800 
	C39.157772,40.259548 38.056366,41.798660 38.106426,46.955681 
	C38.220554,58.712364 38.142445,70.470917 38.142445,82.507744 
	C40.158943,82.993103 41.613468,83.756233 42.954380,83.591957 
	C47.852009,82.991951 52.724377,82.151138 57.579376,81.255333 
	C59.450020,80.910172 61.248726,80.175117 63.660091,79.356148 
	C64.082054,79.372734 64.504021,79.389320 65.231300,79.972572 
M121.613708,61.500584 
	C121.613708,67.907455 121.613708,74.314331 121.613708,80.407349 
	C135.177383,82.517525 147.939835,84.503052 161.089111,86.548759 
	C161.089111,71.551994 161.089111,56.703407 161.089111,41.757252 
	C147.820633,41.757252 134.937180,41.757252 121.613792,41.757252 
	C121.613792,48.243843 121.613792,54.373104 121.613708,61.500584 
z"/>
<path fill="#FFFFFE" opacity="1.000000" stroke="none" 
	d="
M70.988892,160.818481 
	C61.640194,160.869614 52.291492,160.920761 42.476006,160.438873 
	C42.003899,145.117142 41.969341,130.328354 42.007812,115.539764 
	C42.022972,109.710709 44.295776,105.970108 48.958092,104.903145 
	C53.223671,103.926971 57.636318,103.593422 62.205406,103.237320 
	C62.543499,103.611168 62.665485,103.719574 62.776417,103.838303 
	C65.000954,106.219170 67.386734,109.448448 70.819000,107.131912 
	C71.966415,106.357483 71.003227,102.455887 71.329895,99.936554 
	C72.778465,99.020096 73.901970,98.150826 75.025482,97.281563 
	C75.763992,97.150230 76.502502,97.018898 77.880531,97.154152 
	C81.343163,96.719116 84.166283,96.017502 86.989395,95.315887 
	C87.430473,95.233299 87.871544,95.150719 88.784027,95.443130 
	C94.747528,96.487625 100.249413,97.217499 104.993553,93.269043 
	C106.388794,93.144920 107.784035,93.020805 109.863091,93.200531 
	C112.779488,93.724167 115.021530,94.190742 117.242439,94.105705 
	C120.545288,93.979233 123.829750,93.211266 127.128227,93.165833 
	C133.574203,93.077080 140.052612,93.723831 146.466705,93.298576 
	C157.616928,92.559319 160.011902,94.530518 160.008072,105.847862 
	C160.001892,124.171967 159.990631,142.496078 159.981506,160.820160 
	C148.628433,160.871582 137.275360,160.922989 125.277756,160.543472 
	C124.416107,158.151108 124.026520,156.190964 124.011543,154.227982 
	C123.944397,145.426941 123.988098,136.625092 123.983505,127.823524 
	C123.979836,120.789001 123.332207,120.059250 116.433189,120.022232 
	C106.137344,119.966995 95.838249,119.886902 85.546722,120.106880 
	C83.020828,120.160873 80.518898,121.336128 77.632889,122.025726 
	C76.230576,123.899277 74.359283,125.727333 74.324684,127.589531 
	C74.204796,134.040955 74.831467,140.502121 74.958466,146.963837 
	C75.033318,150.771942 76.125389,154.978699 71.630676,157.529724 
	C70.998276,157.888641 71.182602,159.686615 70.988892,160.818481 
z"/>
<path fill="#FDF9F9" opacity="1.000000" stroke="none" 
	d="
M121.613754,61.001476 
	C121.613792,54.373104 121.613792,48.243843 121.613792,41.757252 
	C134.937180,41.757252 147.820633,41.757252 161.089111,41.757252 
	C161.089111,56.703407 161.089111,71.551994 161.089111,86.548759 
	C147.939835,84.503052 135.177383,82.517525 121.613708,80.407349 
	C121.613708,74.314331 121.613708,67.907455 121.613754,61.001476 
z"/>
<path fill="#FDF9F8" opacity="1.000000" stroke="none" 
	d="
M64.925980,79.405914 
	C64.504021,79.389320 64.082054,79.372734 62.957741,79.378906 
	C55.219654,80.069237 48.183922,80.736809 40.989986,81.419388 
	C40.989986,67.918732 40.989986,55.030479 40.989986,41.955147 
	C54.201828,41.955147 67.053802,41.955147 80.020111,41.955147 
	C80.020111,54.310577 80.020111,66.228935 80.020111,78.427437 
	C74.790779,78.766434 69.858383,79.086174 64.925980,79.405914 
z"/>
<path fill="#D72A2E" opacity="1.000000" stroke="none" 
	d="
M65.078644,79.689240 
	C69.858383,79.086174 74.790779,78.766434 80.020111,78.427437 
	C80.020111,66.228935 80.020111,54.310577 80.020111,41.955147 
	C67.053802,41.955147 54.201828,41.955147 40.989986,41.955147 
	C40.989986,55.030479 40.989986,67.918732 40.989986,81.419388 
	C48.183922,80.736809 55.219654,80.069237 62.667797,79.509689 
	C61.248726,80.175117 59.450020,80.910172 57.579376,81.255333 
	C52.724377,82.151138 47.852009,82.991951 42.954380,83.591957 
	C41.613468,83.756233 40.158943,82.993103 38.142445,82.507744 
	C38.142445,70.470917 38.220554,58.712364 38.106426,46.955681 
	C38.056366,41.798660 39.157772,40.259548 44.167316,40.058800 
	C53.622784,39.679897 63.079899,39.305206 72.540009,39.091816 
	C79.170914,38.942242 82.563217,40.604599 82.106453,48.160782 
	C81.718422,54.579895 82.598206,61.074001 82.881683,67.536476 
	C82.954536,69.197281 83.027222,70.876564 82.870926,72.525642 
	C82.291786,78.636017 80.570740,80.108925 74.521980,79.991272 
	C71.426140,79.931053 68.328262,79.975449 65.078644,79.689240 
z"/>
<path fill="#FBEDED" opacity="1.000000" stroke="none" 
	d="
M78.005951,121.995895 
	C80.518898,121.336128 83.020828,120.160873 85.546722,120.106880 
	C95.838249,119.886902 106.137344,119.966995 116.433189,120.022232 
	C123.332207,120.059250 123.979836,120.789001 123.983505,127.823524 
	C123.988098,136.625092 123.944397,145.426941 124.011543,154.227982 
	C124.026520,156.190964 124.416107,158.151108 124.812454,160.479401 
	C121.684868,161.773300 121.528603,159.804901 121.542595,157.320831 
	C121.598877,147.326797 121.554054,137.332108 121.520409,127.337730 
	C121.514915,125.706497 121.377632,124.075706 121.286392,122.127121 
	C107.743927,122.127121 94.514488,122.127121 80.439087,122.127121 
	C80.439087,127.492676 80.439804,132.748428 80.438904,138.004166 
	C80.437798,144.500580 80.438263,150.997009 80.431618,157.493423 
	C80.429771,159.300140 80.824898,161.418335 77.689964,160.659027 
	C78.037193,158.460632 78.892159,156.620499 78.934608,154.761780 
	C79.097824,147.615158 79.109810,140.460266 78.956490,133.313202 
	C78.875450,129.535706 78.337570,125.768013 78.005951,121.995895 
z"/>
<path fill="#FBEDED" opacity="1.000000" stroke="none" 
	d="
M160.377960,160.817841 
	C159.990631,142.496078 160.001892,124.171967 160.008072,105.847862 
	C160.011902,94.530518 157.616928,92.559319 146.466705,93.298576 
	C140.052612,93.723831 133.574203,93.077080 127.128227,93.165833 
	C123.829750,93.211266 120.545288,93.979233 117.242439,94.105705 
	C115.021530,94.190742 112.779488,93.724167 110.279388,93.269012 
	C126.923317,93.033638 143.834763,93.033638 161.108322,93.033638 
	C161.232422,94.116936 161.503540,95.389481 161.505280,96.662384 
	C161.532806,116.972771 161.537338,137.283218 161.494781,157.593552 
	C161.492523,158.668030 161.025223,159.741547 160.377960,160.817841 
z"/>
<path fill="#FBFCFD" opacity="1.000000" stroke="none" 
	d="
M77.632889,122.025726 
	C78.337570,125.768013 78.875450,129.535706 78.956490,133.313202 
	C79.109810,140.460266 79.097824,147.615158 78.934608,154.761780 
	C78.892159,156.620499 78.037193,158.460632 77.288925,160.579224 
	C75.294830,160.892090 73.567215,160.935059 71.414246,160.898254 
	C71.182602,159.686615 70.998276,157.888641 71.630676,157.529724 
	C76.125389,154.978699 75.033318,150.771942 74.958466,146.963837 
	C74.831467,140.502121 74.204796,134.040955 74.324684,127.589531 
	C74.359283,125.727333 76.230576,123.899277 77.632889,122.025726 
z"/>
<path fill="#FBEDED" opacity="1.000000" stroke="none" 
	d="
M61.984154,102.976685 
	C57.636318,103.593422 53.223671,103.926971 48.958092,104.903145 
	C44.295776,105.970108 42.022972,109.710709 42.007812,115.539764 
	C41.969341,130.328354 42.003899,145.117142 42.013992,160.363007 
	C41.506847,159.838394 40.555035,158.859467 40.548668,157.874420 
	C40.445240,141.875534 40.513226,125.875519 40.402164,109.876732 
	C40.382786,107.084961 41.284893,105.624451 44.049084,104.913696 
	C50.814964,103.173996 57.522614,101.207848 64.531433,99.640289 
	C63.867489,100.957382 62.925823,101.967033 61.984154,102.976685 
z"/>
<path fill="#FCFDFB" opacity="1.000000" stroke="none" 
	d="
M62.205406,103.237320 
	C62.925823,101.967033 63.867489,100.957382 64.914398,99.658501 
	C65.915138,99.158241 66.810638,98.947212 68.403763,98.864616 
	C69.735878,99.323288 70.370354,99.653526 71.004829,99.983757 
	C71.003227,102.455887 71.966415,106.357483 70.819000,107.131912 
	C67.386734,109.448448 65.000954,106.219170 62.776417,103.838303 
	C62.665485,103.719574 62.543499,103.611168 62.205406,103.237320 
z"/>
<path fill="#FBEDED" opacity="1.000000" stroke="none" 
	d="
M104.566589,93.203644 
	C100.249413,97.217499 94.747528,96.487625 89.120209,95.489838 
	C94.036537,94.487122 99.088081,93.812683 104.566589,93.203644 
z"/>
<path fill="#FBEDED" opacity="1.000000" stroke="none" 
	d="
M86.601822,95.258240 
	C84.166283,96.017502 81.343163,96.719116 78.255020,97.198883 
	C80.731415,96.384880 83.472832,95.792740 86.601822,95.258240 
z"/>
<path fill="#FBEDED" opacity="1.000000" stroke="none" 
	d="
M71.329895,99.936554 
	C70.370354,99.653526 69.735878,99.323288 68.749725,98.891876 
	C70.356812,98.250061 72.315575,97.709435 74.649918,97.225189 
	C73.901970,98.150826 72.778465,99.020096 71.329895,99.936554 
z"/>
</svg>